PathFileType	4	(X/Y/Z)	Run_500 02
DataRate	CameraRate	NumFrames	NumMarkers	Units	OrigDataRate	OrigDataStartFrame	OrigNumFrames
120	120	8	42	mm	120	81	128
Frame#	Time	LASI			RASI			LPSI			RPSI			RTH1			RTH2			RTH3			LTH1			LTH2			LTH3			RTB1			RTB2			RTB3			LTB1			LTB2			LTB3			RCAL			RTOE			RMT5			LCAL			LTOE			LMT5			LACR			RACR			CLAV			C7			RUA1			RUA2			RUA3			RLEL			RMEL			LUA1			LUA2			LUA3			LLEL			LMEL			RFAsuperior			RFAradius			RFAulna			LFAsuperior			LFAradius			LFAulna		
		X1	Y1	Z1	X2	Y2	Z2	X3	Y3	Z3	X4	Y4	Z4	X5	Y5	Z5	X6	Y6	Z6	X7	Y7	Z7	X8	Y8	Z8	X9	Y9	Z9	X10	Y10	Z10	X11	Y11	Z11	X12	Y12	Z12	X13	Y13	Z13	X14	Y14	Z14	X15	Y15	Z15	X16	Y16	Z16	X17	Y17	Z17	X18	Y18	Z18	X19	Y19	Z19	X20	Y20	Z20	X21	Y21	Z21	X22	Y22	Z22	X23	Y23	Z23	X24	Y24	Z24	X25	Y25	Z25	X26	Y26	Z26	X27	Y27	Z27	X28	Y28	Z28	X29	Y29	Z29	X30	Y30	Z30	X31	Y31	Z31	X32	Y32	Z32	X33	Y33	Z33	X34	Y34	Z34	X35	Y35	Z35	X36	Y36	Z36	X37	Y37	Z37	X38	Y38	Z38	X39	Y39	Z39	X40	Y40	Z40	X41	Y41	Z41	X42	Y42	Z42	

81	  0.675000	803.697345	999.145832	-510.204632	794.452578	1027.112024	-270.564027	644.466560	1054.531708	-435.781698	641.045932	1054.095315	-347.668749	818.981218	858.872966	-212.533558	933.834338	783.714360	-240.073067	923.182115	637.501179	-240.049648	713.243286	857.177292	-553.966016	713.999740	732.632783	-534.742415	586.727888	639.729145	-532.164711	1045.247779	461.286686	-290.408233	1012.026952	391.081392	-240.935907	1049.117530	281.717859	-309.270358	425.872438	465.327305	-454.380447	312.668556	477.325197	-506.732826	233.831665	450.151196	-434.211623	964.183576	123.218545	-326.381173	1179.851691	166.468890	-317.577848	1149.141069	133.038188	-229.018570	118.368386	533.264538	-466.681846	 88.960982	348.119884	-359.766299	 34.601154	341.321983	-436.401030	852.376258	1465.282031	-547.376640	747.340903	1477.895625	-209.223879	878.544157	1424.610365	-317.799347	770.085462	1512.120226	-388.428245	676.462932	1429.367822	-138.349630	662.687514	1361.855328	-115.794321	562.674458	1396.629699	-123.395495	534.445452	1329.542478	-62.081097	504.954402	1301.645252	-140.082564	843.836791	1402.240988	-614.641698	782.604107	1348.768728	-645.005605	850.341035	1317.946645	-665.374464	841.673273	1218.002734	-721.975119	765.043449	1174.532178	-689.076166	593.526137	1278.551035	-35.822749	724.517801	1165.194177	-36.206329	665.316117	1130.840969	-25.632815	893.300860	1228.556942	-669.996861	929.758271	1251.443383	-497.962141	951.302239	1191.380193	-512.012659	
82	  0.683333	804.963706	997.597116	-509.868454	793.226273	1023.966091	-269.495875	645.211777	1051.378139	-436.401675	640.938001	1049.155738	-348.507619	816.688024	851.576993	-210.660963	927.348908	771.310659	-239.599669	915.450301	627.731750	-240.685193	717.891146	853.294726	-553.364676	718.855474	729.573578	-535.297965	594.259233	634.220298	-531.702138	1041.973437	455.298950	-292.349550	1011.741814	384.129193	-242.435176	1053.154213	276.857161	-310.828029	430.944202	468.318540	-454.181574	319.811898	490.273157	-506.233302	238.381974	471.481874	-434.611520	974.865929	113.941156	-327.778144	1188.791391	166.375309	-318.663006	1159.393265	131.274519	-230.122079	131.896979	564.632025	-468.091273	 85.902257	383.202370	-360.325151	 31.197732	380.962884	-436.854148	854.733755	1462.411919	-545.364734	749.393028	1472.942658	-206.877627	879.560310	1420.401084	-316.284271	772.505253	1509.423525	-386.419093	678.537839	1423.972369	-135.990397	665.457931	1356.675167	-113.057083	565.119458	1390.205725	-121.093681	537.482278	1323.777638	-59.080613	508.425817	1294.078662	-136.725770	844.249460	1400.465380	-613.466545	781.328929	1349.623907	-643.695386	847.946228	1316.427087	-665.181730	835.548021	1217.121585	-722.803885	756.681620	1176.966253	-690.410446	597.703832	1274.348150	-32.575136	730.764649	1163.274117	-31.588537	671.890646	1128.374259	-20.387425	887.421743	1224.153583	-670.644928	925.293126	1241.336370	-498.045408	942.717124	1180.780086	-513.749345	
83	  0.691667	806.211099	995.069713	-508.580336	792.138291	1019.746489	-268.835476	645.518246	1046.769100	-436.753021	640.614147	1043.272243	-349.015104	813.814725	843.560097	-208.725476	921.686893	760.946340	-238.956548	909.823629	619.848812	-241.197780	722.240013	848.780514	-552.331485	723.403832	725.843233	-535.874663	601.721084	628.215537	-531.234190	1037.630979	449.577492	-293.639231	1008.060599	377.575395	-243.640262	1053.014688	271.730701	-311.591790	437.910928	470.644541	-454.517775	329.509431	503.046682	-506.108418	246.590387	491.930403	-434.862724	978.524659	105.512864	-329.114044	1191.388913	164.282719	-319.629849	1162.507169	127.926353	-231.006896	149.515940	594.892023	-467.202169	 88.113082	415.559597	-363.343249	 33.979027	419.567790	-439.922669	856.208433	1458.744289	-543.572566	751.363002	1466.820460	-204.380764	880.540123	1415.225382	-314.944020	774.415558	1505.680017	-384.400913	680.759528	1417.004417	-133.214919	668.576514	1350.060195	-109.935333	567.716562	1382.116199	-118.352160	541.108393	1316.448711	-55.437686	512.197511	1284.821884	-132.520127	843.480931	1398.017709	-612.395526	778.861518	1349.517664	-642.024801	844.285969	1314.295721	-665.061907	828.259966	1215.581628	-723.524581	747.670725	1178.700243	-691.373677	602.741502	1268.855408	-28.986938	738.137313	1160.487727	-27.235542	679.764700	1124.882763	-15.112023	880.535482	1218.751788	-671.607460	920.609950	1229.933185	-498.829931	933.768662	1169.109952	-516.556873	
84	  0.700000	807.367547	991.497551	-506.916225	791.135613	1014.612996	-268.236529	645.357362	1040.766896	-436.729744	639.954148	1036.739098	-349.084628	810.527889	835.626678	-207.375752	917.719021	753.563085	-238.458626	905.637979	613.377552	-241.751700	726.189286	843.620569	-551.032687	728.386364	721.037989	-535.802776	609.944277	621.383182	-531.131416	1032.161159	443.307476	-294.327655	1001.691408	370.646633	-244.539031	1049.400531	265.370789	-311.926033	446.711691	472.358031	-455.215490	341.774042	515.487505	-506.280969	258.284488	511.116655	-434.843940	975.696830	 98.306525	-330.407716	1188.463309	158.058009	-321.552131	1159.429659	121.139002	-232.788268	170.604709	623.329464	-464.298389	 95.106508	444.886643	-368.139860	 42.946532	455.782051	-445.118473	856.786211	1454.245855	-542.122169	753.149745	1459.602136	-201.789857	881.486704	1409.196630	-313.734266	775.935980	1501.087386	-382.303982	683.065049	1408.587407	-130.120222	671.990297	1342.054222	-106.480755	570.412332	1372.411145	-115.089067	545.295944	1307.514883	-51.166248	516.291488	1273.927037	-127.547386	841.551248	1394.892972	-611.441516	775.229231	1348.447709	-640.097511	839.473794	1311.599486	-664.976358	819.813900	1213.436010	-724.067149	738.003933	1179.694101	-691.827940	608.521193	1262.008461	-24.967658	746.590582	1156.875500	-23.220836	688.923527	1120.333451	 -9.928281	872.599407	1212.471922	-672.868787	915.542939	1217.326956	-500.476534	924.444441	1156.479235	-520.018380	
85	  0.708333	808.457352	986.873645	-505.581212	790.148835	1008.777649	-267.335940	644.824932	1033.499861	-436.268050	638.986976	1029.641122	-348.723548	807.370450	828.470255	-207.325269	915.410993	748.605060	-238.540253	901.600539	607.174095	-242.590848	729.780023	837.831987	-549.797032	734.530425	715.061805	-535.078792	619.501118	613.528048	-531.633247	1025.484525	435.608926	-295.094969	993.781458	362.673888	-245.544938	1042.537757	257.075505	-312.719970	457.357258	473.390989	-456.084673	356.597026	527.051001	-506.473663	273.275667	528.566371	-434.560143	966.338550	 93.416978	-331.684443	1180.019559	145.845910	-325.310825	1150.375357	110.079678	-236.392424	194.724695	649.235935	-459.907930	106.327106	471.118726	-374.184548	 57.604083	488.717695	-451.856764	856.547893	1448.881458	-541.070918	754.742879	1451.429766	-199.138322	882.396731	1402.507252	-312.622874	777.223371	1495.869032	-380.011232	685.451585	1398.915063	-126.837289	675.699543	1332.766287	-102.779716	573.247584	1361.172248	-111.278136	550.029259	1296.997266	-46.318823	520.784165	1261.472620	-121.939935	838.632985	1390.997443	-610.575601	770.538613	1346.362703	-637.917735	833.686110	1308.287012	-664.905291	810.258279	1210.737010	-724.396228	727.667096	1179.997956	-691.658790	614.949790	1253.760031	-20.500852	756.091587	1152.546160	-19.641694	699.391267	1114.744472	 -5.024714	863.604323	1205.519399	-674.380648	909.999816	1203.565449	-502.972984	914.729519	1142.973622	-523.943314	
86	  0.716667	809.553733	981.366694	-504.970700	789.100810	1002.390937	-265.964159	644.017860	1025.109010	-435.460243	637.689903	1021.866373	-348.096331	804.875187	822.350135	-208.808409	913.848318	744.367793	-239.442657	896.780475	600.321612	-243.787135	733.255064	831.435392	-548.841630	742.162712	708.184980	-534.179608	630.415699	604.689368	-532.705173	1017.671303	426.054700	-296.874861	985.214350	353.393426	-247.362612	1031.898477	246.695209	-314.854747	469.905451	473.646184	-456.932221	373.852778	536.969794	-506.433013	291.328320	543.848088	-434.093401	949.755110	 91.614693	-333.007513	1165.113049	127.653480	-330.839122	1134.623727	 95.857075	-241.745489	221.487078	672.029376	-454.691513	121.399808	494.238401	-381.121466	 77.251556	517.916501	-459.495727	855.671442	1442.651566	-540.384242	756.217418	1442.532005	-196.454268	883.326954	1395.346537	-311.608998	778.395019	1490.113033	-377.519966	687.976579	1388.188195	-123.465317	679.759934	1322.341658	-98.926491	576.346457	1348.503673	-106.946423	555.308510	1284.982802	-40.990440	525.800833	1247.569052	-115.857693	834.980517	1386.200964	-609.774573	764.981048	1343.258934	-635.479198	827.076268	1304.211491	-664.848231	799.685758	1207.533967	-724.501372	716.636699	1179.724728	-690.816145	621.996833	1244.095311	-15.683924	766.616961	1147.667517	-16.627233	711.231304	1108.211298	 -0.636168	853.621674	1198.120034	-676.083335	903.949922	1188.669133	-506.174853	904.664951	1128.656004	-528.530261	
87	  0.725000	810.672714	975.270013	-505.000332	787.879823	995.477586	-264.278700	642.900973	1015.728324	-434.610644	635.774095	1013.347490	-347.493243	803.067310	817.097658	-211.211164	911.936443	739.379396	-240.879492	891.399106	592.993725	-245.071809	736.984260	824.451391	-548.070555	751.015091	700.897977	-533.541033	642.303370	595.101013	-534.071728	1008.868700	415.212642	-300.329772	976.128401	343.402244	-250.509767	1016.470244	235.078759	-318.693650	484.412017	473.073824	-457.606161	393.272726	544.580001	-506.144504	312.133341	556.671433	-433.553580	925.285883	 92.551680	-334.463556	1142.577680	106.430615	-336.941764	1111.212841	 81.507547	-247.577238	250.477671	691.285999	-449.340146	140.149990	514.164964	-388.611247	101.183870	543.139880	-467.429465	854.401032	1435.644420	-539.977924	757.698626	1433.243333	-193.744311	884.444100	1387.761915	-310.754275	779.462420	1483.733551	-375.028714	690.751308	1376.552289	-120.013333	684.268693	1310.920135	-95.017408	579.878430	1334.534819	-102.140347	561.190015	1271.598295	-35.323567	531.542585	1232.338781	-109.486102	830.802697	1380.431989	-609.059533	758.773340	1339.258735	-632.824314	819.694015	1299.227140	-664.775399	788.185742	1203.884669	-724.380016	704.899439	1178.993630	-689.298161	629.758101	1233.066467	-10.744748	778.145059	1142.436926	-14.357505	724.511713	1100.919839	  2.990142	842.753066	1190.433734	-677.930453	897.403985	1172.713242	-509.997414	894.341309	1113.618149	-534.178991	
88	  0.733333	811.686474	968.830717	-505.189187	786.305114	988.036531	-262.694913	641.307051	1005.615089	-434.169282	632.772085	1004.412826	-347.275267	801.288051	812.431851	-213.316621	909.197474	733.660036	-242.132391	886.691857	586.501518	-245.901630	741.284424	816.984094	-547.147051	760.398897	693.746050	-533.234752	654.756184	585.104716	-535.364472	999.038521	404.681205	-305.416714	965.930014	334.278193	-254.772616	995.644276	224.185139	-323.809415	500.933597	471.690922	-458.049809	414.506008	549.592080	-505.827204	335.314309	566.889059	-433.055872	893.301547	 94.947216	-336.056018	1112.202250	 87.127360	-341.985168	1080.093703	 70.535958	-252.179526	281.246084	706.723461	-444.501652	162.415340	530.735271	-396.180049	128.716852	564.141381	-475.218995	852.966006	1428.090262	-539.807804	759.295447	1423.998657	-190.953546	885.974967	1379.612099	-310.198208	780.324750	1476.657910	-372.817758	693.912962	1364.080481	-116.410961	689.341290	1298.620488	-91.173475	584.011180	1319.436528	-96.885174	567.851532	1256.984304	-29.513663	538.292494	1215.897704	-103.033417	826.168702	1373.788635	-608.470435	752.051345	1334.624046	-629.985068	811.467647	1293.371818	-664.560859	775.783893	1199.887894	-724.007043	692.525550	1177.886455	-687.080335	638.501575	1220.862701	 -6.045248	790.647620	1137.062366	-13.073416	739.252559	1093.156934	  5.624818	831.022312	1182.517528	-679.901482	890.412315	1155.907806	-514.516597	883.843592	1098.023590	-541.150124	
